<svg width="24" height="24" viewBox="0 0 24 24" fill="none" xmlns="http://www.w3.org/2000/svg">
<path d="M16.0644 8.31482C16.0644 8.21169 15.98 8.12732 15.8769 8.12732L14.3301 8.13435L12.0004 10.9117L9.67304 8.13669L8.12382 8.12966C8.0207 8.12966 7.93633 8.21169 7.93633 8.31716C7.93633 8.36169 7.95273 8.40388 7.98086 8.43904L11.0301 12.0719L7.98086 15.7023C7.95254 15.7367 7.93682 15.7797 7.93633 15.8242C7.93633 15.9273 8.0207 16.0117 8.12382 16.0117L9.67304 16.0047L12.0004 13.2273L14.3277 16.0023L15.8746 16.0094C15.9777 16.0094 16.0621 15.9273 16.0621 15.8219C16.0621 15.7773 16.0457 15.7351 16.0175 15.7L12.973 12.0695L16.0222 8.43669C16.0504 8.40388 16.0644 8.35935 16.0644 8.31482Z" fill="#F5222D"/>
<path d="M12 1.52344C6.20156 1.52344 1.5 6.225 1.5 12.0234C1.5 17.8219 6.20156 22.5234 12 22.5234C17.7984 22.5234 22.5 17.8219 22.5 12.0234C22.5 6.225 17.7984 1.52344 12 1.52344ZM12 20.7422C7.18594 20.7422 3.28125 16.8375 3.28125 12.0234C3.28125 7.20938 7.18594 3.30469 12 3.30469C16.8141 3.30469 20.7188 7.20938 20.7188 12.0234C20.7188 16.8375 16.8141 20.7422 12 20.7422Z" fill="#F5222D"/>
</svg>
