<svg width="70" height="52" viewBox="0 0 70 52" fill="none" xmlns="http://www.w3.org/2000/svg">
<path d="M35.001 0C15.6699 0 0 15.6699 0 35.001C0 39.7556 0.960078 44.2874 2.68403 48.4173C3.33361 49.9793 5.35472 51.1908 7.04819 51.1908H7.7092C9.40267 51.1908 11.5571 50.0612 12.521 48.6706L14.6031 45.6647C15.567 44.2741 17.3195 44.1141 18.5158 45.3104L18.9958 45.7904C20.194 46.9905 21.9065 46.8057 22.8209 45.3808L32.7017 26.9431C33.618 25.5183 35.1876 25.4592 36.2106 26.8079L47.3962 44.6475C48.4192 45.998 50.5222 46.579 52.0938 45.9504L55.2788 44.6703C56.8504 44.0379 59.2848 44.2569 60.7154 45.1637L64.4243 47.5048C65.8568 48.4097 67.5865 47.8896 68.1332 46.2876C69.3428 42.7463 70 38.9498 70 34.999C70.0019 15.6698 54.3321 0 35.001 0Z" fill="#1AEDC7"/>
</svg>
